<?xml version="1.0" encoding="utf-8"?>
<!-- Generator: Adobe Illustrator 22.1.0, SVG Export Plug-In . SVG Version: 6.00 Build 0)  -->
<svg version="1.1" id="Warstwa_1" xmlns="http://www.w3.org/2000/svg" xmlns:xlink="http://www.w3.org/1999/xlink" x="0px" y="0px"
	 viewBox="0 0 1000.7 175.8" style="enable-background:new 0 0 1000.7 175.8;" xml:space="preserve">
<style type="text/css">
	.st0{fill:#0FD2FF;}
	.st1{fill:#C382FA;}
	.st2{fill:#0082FA;}
	.st3{fill:#8250FA;}
	.st4{fill:#FA0064;}
	.st5{fill:#BE0064;}
</style>
<g>
	<g>
		<path d="M5.2,50c-1.5,0-2.7-1.3-2.7-2.8c0-1.5,1.1-2.7,2.7-2.7c1.5,0,2.7,1.2,2.7,2.7C7.9,48.7,6.7,50,5.2,50z M7.4,56.6v24.2
			c0,1.3-0.9,2.3-2.2,2.3c-1.1,0-2.2-1-2.2-2.3V56.6c0-1.2,0.9-2.3,2.2-2.3C6.4,54.3,7.4,55.3,7.4,56.6z"/>
		<path d="M41.1,80.8c0,1.3-0.9,2.3-2.2,2.3c-1.2,0-2.2-1-2.2-2.3V65.2c0-5-3.4-7.1-7.3-7.1c-3,0-6,0.9-7.5,1.8v20.9
			c0,1.3-0.9,2.3-2.2,2.3c-1.2,0-2.2-1-2.2-2.3v-22c0-1,0.3-1.5,1-2c1.5-1.1,5.4-2.9,11-2.9c7.6,0,11.6,4,11.6,11.1V80.8z"/>
		<path d="M58.7,83.4c-5.8,0-8.4-3.9-8.4-9V50.8c0-1.2,1-2.2,2.2-2.2c1.2,0,2.2,1,2.2,2.2v4.5H63c1.1,0,2.1,0.9,2.1,2
			c0,1.1-1,2-2.1,2h-8.2v15.3c0,2.7,1.2,4.7,4.2,4.7c1.6,0,3-0.6,4.3-1c1.8-0.4,2.8,0.7,2.8,2c0,1-0.5,1.7-1.8,2.1
			C62.9,83,60.8,83.4,58.7,83.4z"/>
		<path d="M95,67.3c0,1.9-1,3.2-3.2,3.2H75.5v0.9c0,5.1,3.3,8,8.1,8c2,0,4.2-0.5,6.6-1.4c2-0.8,3.2,0.5,3.2,1.7c0,0.7-0.3,1.4-1.2,2
			c-1.7,1-5.5,1.7-8.6,1.7c-7.5,0-12-4.7-12.3-11.7c-0.1-2.1-0.1-4.8,0.1-6.5c0.6-7,5.4-11.2,12-11.2c7.2,0,11.7,4.9,11.7,11.8V67.3
			z M90,66.8c0.4,0,0.7-0.2,0.7-0.7c0.3-4.9-2.7-8.3-7.3-8.3c-5.3,0-8,3.5-7.8,8.9H90z"/>
		<path d="M108,46.6v34.3c0,1.3-0.9,2.3-2.2,2.3c-1.2,0-2.2-1-2.2-2.3V46.6c0-1.2,0.9-2.2,2.2-2.2C107,44.4,108,45.3,108,46.6z"/>
		<path d="M120.2,50c-1.5,0-2.7-1.3-2.7-2.8c0-1.5,1.1-2.7,2.7-2.7c1.5,0,2.7,1.2,2.7,2.7C122.9,48.7,121.8,50,120.2,50z
			 M122.5,56.6v24.2c0,1.3-0.9,2.3-2.2,2.3c-1.1,0-2.2-1-2.2-2.3V56.6c0-1.2,0.9-2.3,2.2-2.3C121.5,54.3,122.5,55.3,122.5,56.6z"/>
		<path d="M155.2,80.4c0,8.3-5.2,12.6-12.2,12.6c-3.7,0-6.7-1.1-8.6-2.3c-1.4-0.9-1.9-1.6-1.9-2.3c0-0.8,0.5-2.1,2.1-2.1
			c0.9,0,1.7,0.5,2.3,0.9c1.6,0.9,3.3,1.7,6.1,1.7c4.1,0,7.8-2.6,7.8-7.6v-0.5c-2,0.9-4.8,1.8-8,1.8c-6.7,0-10.8-4.2-11.2-10.8
			c-0.1-1.6-0.1-5.2,0-6.8c0.4-6.4,4.5-11,11.8-11c4.9,0,9.5,2.1,10.9,3.1c0.7,0.5,0.9,1,0.9,2.2V80.4z M136,65.2
			c-0.2,1.8-0.1,4.8,0,6.3c0.3,4.5,2.4,7,7.3,7c3.7,0,6.7-1.5,7.6-2.2V60.1c-0.2-0.2-3.2-2-7.2-2C138.5,58.1,136.4,60.9,136,65.2z"
			/>
		<path d="M188,67.3c0,1.9-1,3.2-3.2,3.2h-16.2v0.9c0,5.1,3.3,8,8.1,8c2,0,4.2-0.5,6.6-1.4c2-0.8,3.2,0.5,3.2,1.7
			c0,0.7-0.3,1.4-1.2,2c-1.7,1-5.5,1.7-8.6,1.7c-7.5,0-12-4.7-12.3-11.7c-0.1-2.1-0.1-4.8,0.1-6.5c0.6-7,5.4-11.2,12-11.2
			c7.2,0,11.7,4.9,11.7,11.8V67.3z M183,66.8c0.4,0,0.7-0.2,0.7-0.7c0.3-4.9-2.7-8.3-7.3-8.3c-5.3,0-8,3.5-7.8,8.9H183z"/>
		<path d="M220.1,80.8c0,1.3-0.9,2.3-2.2,2.3c-1.2,0-2.2-1-2.2-2.3V65.2c0-5-3.4-7.1-7.3-7.1c-3,0-6,0.9-7.5,1.8v20.9
			c0,1.3-0.9,2.3-2.2,2.3c-1.2,0-2.2-1-2.2-2.3v-22c0-1,0.3-1.5,1-2c1.5-1.1,5.4-2.9,11-2.9c7.6,0,11.6,4,11.6,11.1V80.8z"/>
		<path d="M237.7,83.4c-5.8,0-8.4-3.9-8.4-9V50.8c0-1.2,1-2.2,2.2-2.2c1.2,0,2.2,1,2.2,2.2v4.5h8.2c1.1,0,2.1,0.9,2.1,2
			c0,1.1-1,2-2.1,2h-8.2v15.3c0,2.7,1.2,4.7,4.2,4.7c1.6,0,3-0.6,4.3-1c1.8-0.4,2.8,0.7,2.8,2c0,1-0.5,1.7-1.8,2.1
			C241.9,83,239.7,83.4,237.7,83.4z"/>
		<path d="M275.3,80.8c0,1.3-0.9,2.3-2.2,2.3c-1.2,0-2.2-1-2.2-2.3V65.2c0-5-3.4-7.1-7.3-7.1c-3,0-6,0.9-7.5,1.8v20.9
			c0,1.3-0.9,2.3-2.2,2.3c-1.2,0-2.2-1-2.2-2.3v-22c0-1,0.3-1.5,1-2c1.5-1.1,5.4-2.9,11-2.9c7.6,0,11.6,4,11.6,11.1V80.8z"/>
		<path d="M281.3,57.5c-0.7-1.6,0.4-3.2,2.1-3.2c1.1,0,1.6,0.7,2.1,1.6l8.4,19.4c0.1,0.2,0.3,0.2,0.4,0l7.7-19.2
			c0.4-1,1.1-1.7,2.2-1.7c1.7,0,2.7,1.6,2.1,3.2L296,82.3c-2.1,5-5.2,8.9-7.6,10.3c-0.7,0.4-1.4,0.7-2,0.7c-1.1,0-2.2-0.8-2.2-2.1
			c0-0.7,0.4-1.5,1-1.9c2.3-1.3,4.8-3.9,6.3-8.2L281.3,57.5z"/>
		<path d="M171.7,111.7c-0.1-0.2-0.2-0.2-0.3-0.2c-0.1,0-0.3,0.1-0.3,0.2l-5.5,20.8c-0.6,2.3-2.1,3.4-3.9,3.4
			c-1.8,0-3.5-1.1-4.1-3.4l-6.3-22.8c-0.4-1.6,0.5-3.1,2-3.1c0.9,0,1.7,0.5,2,1.6l6.1,22.9c0.1,0.4,0.4,0.4,0.5,0l5.5-21.3
			c0.5-2,2.1-3.2,3.9-3.2c1.8,0,3.4,1.2,3.9,3.3l5.5,21.2c0.1,0.4,0.4,0.4,0.5,0l5.9-22.8c0.2-1.1,1.1-1.7,2.2-1.7
			c1.6,0,2.4,1.6,2,3.1l-6.4,22.8c-0.7,2.3-2.2,3.4-4,3.4c-1.8,0-3.5-1.1-4-3.4L171.7,111.7z"/>
		<path d="M195.8,109.9c-0.7-1.6,0.4-3.2,2.1-3.2c1.1,0,1.6,0.7,2.1,1.6l8.4,19.4c0.1,0.2,0.3,0.2,0.4,0l7.7-19.2
			c0.4-1,1.1-1.7,2.2-1.7c1.7,0,2.7,1.6,2.1,3.2l-10.2,24.8c-2.1,5-5.2,8.9-7.6,10.3c-0.7,0.4-1.4,0.7-2,0.7c-1.1,0-2.2-0.8-2.2-2.1
			c0-0.7,0.4-1.5,1-1.9c2.3-1.3,4.8-3.9,6.3-8.2L195.8,109.9z"/>
		<path d="M250.6,124.8c-0.5,6.7-4.8,11-12,11c-4.9,0-9.4-2.3-10.8-3.3c-0.8-0.5-0.9-1-0.9-1.8V98.9c0-1.2,0.9-2.3,2.2-2.3
			c1.2,0,2.2,1,2.2,2.3v9.1c2-0.9,4.8-1.7,7.8-1.7c6.9,0,10.9,4,11.4,10.8C250.7,119.1,250.7,122.8,250.6,124.8z M246.1,117.4
			c-0.3-4.5-2.4-7-7.1-7c-3.2,0-6.4,1.1-7.7,1.9v17.1c1.2,0.9,4.5,2.2,7.2,2.2c4.7,0,7.2-2.4,7.6-7.2
			C246.3,122.6,246.2,119,246.1,117.4z"/>
		<path d="M282.3,117.1c0.2,2.2,0.2,5.5,0,7.7c-0.4,6.4-5.4,11-12.1,11c-6.7,0-11.7-4.6-12.1-11c-0.1-2.2-0.1-5.5,0-7.7
			c0.4-6.4,5.4-10.8,12.1-10.8C277,106.3,282,110.7,282.3,117.1z M262.5,117.4c-0.1,1.9-0.1,5.3,0,7.1c0.4,4.2,3.3,7.1,7.7,7.1
			c4.4,0,7.3-2.9,7.7-7.1c0.1-1.8,0.1-5.2,0-7.1c-0.3-4-3.2-7-7.7-7S262.8,113.4,262.5,117.4z M273.2,96c0.3-0.1,0.6-0.2,0.9-0.2
			c1,0,1.8,0.8,1.8,1.8c0,0.7-0.4,1.3-1,1.6l-7.3,3.8c-0.3,0.2-0.6,0.3-1,0.3c-1,0-1.8-0.8-1.8-1.8c0-0.7,0.4-1.4,1-1.7L273.2,96z"
			/>
		<path d="M306.4,109c0,0.9-0.7,2-2.2,2c-1.1,0-2.4-0.4-4.3-0.4c-3,0.1-4.4,1.6-4.4,4.9v17.8c0,1.2-1,2.2-2.2,2.2
			c-1.2,0-2.2-1-2.2-2.2V115c0-5.3,3.2-8.6,8.9-8.6c1.8,0,3.7,0.3,4.7,0.6C305.9,107.2,306.4,107.9,306.4,109z"/>
	</g>
	<g>
		<g>
			<path d="M557.6,77.7h-38.4c-5.6,0-10.1,4.5-10.1,10.1c0,5.6,4.5,10.1,10.1,10.1h38.4c5.6,0,10.1-4.5,10.1-10.1
				C567.7,82.2,563.2,77.7,557.6,77.7"/>
			<path d="M653.3,87.9l33.9-42.2c3.5-4.4,2.8-10.7-1.5-14.2c-1.8-1.4-4-2.2-6.3-2.2c-3.1,0-6,1.4-7.9,3.8l-36,44.8h-25.7V39.4
				c0-5.6-4.5-10.1-10.1-10.1c-5.6,0-10.1,4.5-10.1,10.1v96.8c0,5.6,4.5,10.1,10.1,10.1c5.6,0,10.1-4.5,10.1-10.1V98.1h25.7l36,44.5
				c1.9,2.4,4.8,3.8,7.9,3.8c2.3,0,4.6-0.8,6.4-2.3c2.1-1.7,3.4-4.1,3.7-6.8c0.3-2.7-0.5-5.3-2.2-7.4L653.3,87.9z"/>
			<path d="M724.3,72.8c0-15.4,11.3-23.5,22.4-23.5h21.5c11.1,0,22.4,8.1,22.4,23.5v29.7c0,15.4-11.3,23.5-22.4,23.5h-21.5
				c-11.1,0-22.4-8.1-22.4-23.5V72.8z M768.3,29.1h-21.5c-12.5,0-23.7,4.9-31.6,13.9c-7,8-11.1,18.8-11.1,29.8v29.7
				c0,11,4,21.8,11.1,29.8c7.9,9,19.2,13.9,31.6,13.9h21.5c12.5,0,23.7-4.9,31.6-13.9c7-8,11.1-18.8,11.1-29.8V72.8
				c0-11-4-21.8-11.1-29.8C792,34.1,780.8,29.1,768.3,29.1"/>
			<path d="M987.1,43c-7.9-9-19.2-13.9-31.6-13.9h-8.4c-12.5,0-23.7,4.9-31.6,13.9c-0.3,0.3-0.6,0.7-0.9,1.1
				c-0.3-0.4-0.6-0.7-0.9-1.1c-7.9-9-19.2-13.9-31.6-13.9h-8.4c-12.5,0-23.7,4.9-31.6,13.9c-7,8-11.1,18.8-11.1,29.8v63.3
				c0,5.6,4.5,10.1,10.1,10.1c5.6,0,10.1-4.5,10.1-10.1V72.8c0-15.4,11.3-23.5,22.4-23.5h8.4c11.1,0,22.4,8.1,22.4,23.5v63.3
				c0,5.6,4.5,10.1,10.1,10.1c5.6,0,10.1-4.5,10.1-10.1V72.8c0-15.4,11.3-23.5,22.4-23.5h8.4c11.1,0,22.4,8.1,22.4,23.5v63.3
				c0,5.6,4.5,10.1,10.1,10.1c5.6,0,10.1-4.5,10.1-10.1V72.8C998.2,61.9,994.2,51,987.1,43"/>
		</g>
		<g>
			<path class="st0" d="M433.2,98.8L361,26.5c-5.9-5.9-5.9-15.4,0-21.3l0.2-0.2c5.9-5.9,15.4-5.9,21.3,0l72.3,72.3
				c5.9,5.9,5.9,15.4,0,21.3l-0.2,0.2C448.7,104.7,439.1,104.7,433.2,98.8"/>
			<path class="st1" d="M505.3,170.8L433,98.6c-5.9-5.9-5.9-15.4,0-21.3l0.2-0.2c5.9-5.9,15.4-5.9,21.3,0l72.3,72.3
				c5.9,5.9,5.9,15.4,0,21.3l-0.2,0.2C520.7,176.7,511.2,176.7,505.3,170.8"/>
			<path class="st2" d="M433.2,98.8l-46.6-46.6c-5.9-5.9-5.9-15.4,0-21.3l0.2-0.2c5.9-5.9,15.4-5.9,21.3,0l46.6,46.6
				c5.9,5.9,5.9,15.4,0,21.3l-0.2,0.2C448.7,104.7,439.1,104.7,433.2,98.8"/>
			<path class="st3" d="M476.7,142.2L433,98.6c-5.9-5.9-5.9-15.4,0-21.3l0.2-0.2c5.9-5.9,15.4-5.9,21.3,0l43.7,43.7
				c5.9,5.9,5.9,15.4,0,21.3l-0.2,0.2C492.1,148.1,482.6,148.1,476.7,142.2"/>
			<path class="st4" d="M505.3,5L361,149.3c-5.9,5.9-5.9,15.4,0,21.3l0.2,0.2c5.9,5.9,15.4,5.9,21.3,0L526.8,26.5
				c5.9-5.9,5.9-15.4,0-21.3L526.6,5C520.7-0.9,511.2-0.9,505.3,5z"/>
			<path class="st5" d="M474.3,36l-93.4,93.4c-5.9,5.9-5.9,15.4,0,21.3l0.2,0.2c5.9,5.9,15.4,5.9,21.3,0l93.4-93.4
				c5.9-5.9,5.9-15.4,0-21.3l-0.2-0.2C489.7,30.1,480.2,30.1,474.3,36z"/>
			<path d="M463.6,129.2l-64.6-64.6c-5.9-5.9-5.9-15.4,0-21.3l0.2-0.2c5.9-5.9,15.4-5.9,21.3,0l64.6,64.6c5.9,5.9,5.9,15.4,0,21.3
				l-0.2,0.2C479.1,135.1,469.5,135.1,463.6,129.2"/>
			<path d="M458.7,51.6l-64,64c-5.9,5.9-5.9,15.4,0,21.3l0.2,0.2c5.9,5.9,15.4,5.9,21.3,0l64-64c5.9-5.9,5.9-15.4,0-21.3l-0.2-0.2
				C474.1,45.7,464.6,45.7,458.7,51.6z"/>
		</g>
	</g>
</g>
</svg>
